<svg xmlns="http://www.w3.org/2000/svg" xmlns:xlink="http://www.w3.org/1999/xlink" width="500" zoomAndPan="magnify" viewBox="0 0 375 374.999991" height="500" preserveAspectRatio="xMidYMid meet" version="1.0"><defs><clipPath id="4be79e4523"><path d="M 18 9 L 366 9 L 366 366 L 18 366 Z M 18 9 " clip-rule="nonzero"/></clipPath><clipPath id="9a10746aa2"><path d="M 187.53125 365.203125 C 110.242188 365.203125 42.304688 315.835938 18.46875 242.371094 L 57.429688 229.730469 C 75.777344 286.257812 128.054688 324.246094 187.53125 324.246094 C 262.972656 324.246094 324.335938 262.867188 324.335938 187.445312 C 324.335938 112.019531 262.953125 50.675781 187.53125 50.675781 L 187.53125 9.6875 C 285.566406 9.6875 365.308594 89.429688 365.308594 187.425781 C 365.308594 285.460938 285.566406 365.203125 187.53125 365.203125 Z M 187.53125 365.203125 " clip-rule="nonzero"/></clipPath></defs><path fill="#f1f2f2" d="M 298.738281 76.21875 C 300.558594 78.039062 302.332031 79.902344 304.0625 81.808594 C 305.789062 83.714844 307.472656 85.664062 309.105469 87.652344 C 310.738281 89.644531 312.320312 91.671875 313.851562 93.738281 C 315.386719 95.804688 316.867188 97.910156 318.296875 100.050781 C 319.726562 102.191406 321.105469 104.363281 322.425781 106.570312 C 323.75 108.777344 325.019531 111.015625 326.230469 113.289062 C 327.445312 115.558594 328.601562 117.855469 329.703125 120.183594 C 330.800781 122.507812 331.84375 124.859375 332.832031 127.238281 C 333.816406 129.617188 334.742188 132.015625 335.609375 134.441406 C 336.476562 136.863281 337.28125 139.304688 338.03125 141.769531 C 338.777344 144.230469 339.464844 146.710938 340.089844 149.207031 C 340.714844 151.703125 341.277344 154.214844 341.78125 156.738281 C 342.28125 159.265625 342.722656 161.796875 343.101562 164.34375 C 343.476562 166.890625 343.792969 169.445312 344.042969 172.003906 C 344.296875 174.566406 344.484375 177.132812 344.613281 179.703125 C 344.738281 182.273438 344.800781 184.847656 344.800781 187.417969 C 344.800781 189.992188 344.738281 192.566406 344.613281 195.136719 C 344.488281 197.707031 344.296875 200.273438 344.046875 202.835938 C 343.792969 205.394531 343.476562 207.949219 343.101562 210.496094 C 342.722656 213.039062 342.28125 215.574219 341.78125 218.101562 C 341.277344 220.625 340.714844 223.136719 340.089844 225.632812 C 339.464844 228.128906 338.777344 230.609375 338.03125 233.070312 C 337.285156 235.535156 336.476562 237.976562 335.609375 240.398438 C 334.742188 242.824219 333.816406 245.222656 332.832031 247.601562 C 331.847656 249.980469 330.804688 252.332031 329.703125 254.660156 C 328.605469 256.984375 327.449219 259.28125 326.234375 261.554688 C 325.019531 263.824219 323.753906 266.0625 322.429688 268.269531 C 321.105469 270.476562 319.730469 272.652344 318.300781 274.789062 C 316.871094 276.929688 315.390625 279.035156 313.855469 281.101562 C 312.324219 283.167969 310.738281 285.195312 309.105469 287.1875 C 307.472656 289.175781 305.792969 291.125 304.066406 293.03125 C 302.335938 294.9375 300.5625 296.800781 298.742188 298.621094 C 296.921875 300.441406 295.058594 302.214844 293.152344 303.945312 C 291.246094 305.671875 289.296875 307.351562 287.308594 308.984375 C 285.320312 310.617188 283.289062 312.203125 281.222656 313.734375 C 279.15625 315.269531 277.050781 316.75 274.914062 318.179688 C 272.773438 319.609375 270.597656 320.984375 268.390625 322.308594 C 266.183594 323.632812 263.945312 324.902344 261.675781 326.113281 C 259.40625 327.328125 257.105469 328.484375 254.78125 329.585938 C 252.453125 330.683594 250.101562 331.726562 247.722656 332.710938 C 245.347656 333.699219 242.945312 334.625 240.523438 335.492188 C 238.097656 336.359375 235.65625 337.164062 233.191406 337.914062 C 230.730469 338.660156 228.25 339.347656 225.753906 339.972656 C 223.257812 340.597656 220.746094 341.160156 218.222656 341.664062 C 215.699219 342.164062 213.164062 342.605469 210.617188 342.980469 C 208.070312 343.359375 205.519531 343.675781 202.957031 343.925781 C 200.394531 344.179688 197.828125 344.367188 195.257812 344.496094 C 192.6875 344.621094 190.117188 344.683594 187.542969 344.683594 C 184.96875 344.683594 182.398438 344.621094 179.824219 344.496094 C 177.253906 344.371094 174.691406 344.179688 172.128906 343.929688 C 169.566406 343.675781 167.011719 343.359375 164.46875 342.984375 C 161.921875 342.605469 159.386719 342.164062 156.863281 341.664062 C 154.339844 341.160156 151.828125 340.597656 149.332031 339.972656 C 146.835938 339.347656 144.355469 338.660156 141.890625 337.914062 C 139.429688 337.167969 136.984375 336.359375 134.5625 335.492188 C 132.140625 334.625 129.738281 333.699219 127.359375 332.714844 C 124.984375 331.730469 122.628906 330.6875 120.304688 329.585938 C 117.976562 328.488281 115.679688 327.328125 113.410156 326.117188 C 111.140625 324.902344 108.902344 323.636719 106.691406 322.3125 C 104.484375 320.988281 102.3125 319.613281 100.171875 318.183594 C 98.03125 316.753906 95.929688 315.273438 93.859375 313.738281 C 91.792969 312.207031 89.765625 310.621094 87.777344 308.988281 C 85.785156 307.355469 83.839844 305.675781 81.929688 303.949219 C 80.023438 302.21875 78.160156 300.445312 76.339844 298.625 C 74.519531 296.804688 72.746094 294.941406 71.019531 293.035156 C 69.289062 291.128906 67.609375 289.179688 65.976562 287.191406 C 64.34375 285.203125 62.761719 283.171875 61.226562 281.105469 C 59.695312 279.039062 58.210938 276.933594 56.78125 274.796875 C 55.351562 272.65625 53.976562 270.480469 52.652344 268.273438 C 51.328125 266.066406 50.0625 263.828125 48.847656 261.558594 C 47.636719 259.289062 46.476562 256.988281 45.378906 254.664062 C 44.277344 252.335938 43.234375 249.984375 42.25 247.605469 C 41.265625 245.230469 40.339844 242.828125 39.472656 240.40625 C 38.605469 237.980469 37.796875 235.539062 37.050781 233.074219 C 36.304688 230.613281 35.617188 228.132812 34.992188 225.636719 C 34.367188 223.140625 33.800781 220.628906 33.300781 218.105469 C 32.796875 215.582031 32.359375 213.046875 31.980469 210.5 C 31.601562 207.953125 31.289062 205.402344 31.035156 202.839844 C 30.78125 200.277344 30.59375 197.710938 30.46875 195.140625 C 30.339844 192.570312 30.277344 190 30.277344 187.425781 C 30.277344 184.851562 30.339844 182.28125 30.46875 179.707031 C 30.59375 177.136719 30.78125 174.570312 31.035156 172.011719 C 31.285156 169.449219 31.601562 166.894531 31.980469 164.351562 C 32.355469 161.804688 32.796875 159.269531 33.296875 156.746094 C 33.800781 154.21875 34.363281 151.710938 34.988281 149.214844 C 35.613281 146.71875 36.300781 144.238281 37.046875 141.773438 C 37.796875 139.3125 38.601562 136.867188 39.46875 134.445312 C 40.335938 132.023438 41.261719 129.621094 42.246094 127.242188 C 43.230469 124.867188 44.273438 122.511719 45.375 120.1875 C 46.476562 117.859375 47.632812 115.5625 48.84375 113.292969 C 50.058594 111.023438 51.328125 108.785156 52.648438 106.574219 C 53.972656 104.367188 55.351562 102.195312 56.78125 100.054688 C 58.210938 97.914062 59.691406 95.8125 61.222656 93.742188 C 62.757812 91.675781 64.339844 89.648438 65.972656 87.660156 C 67.605469 85.667969 69.285156 83.71875 71.015625 81.8125 C 72.742188 79.90625 74.515625 78.042969 76.335938 76.222656 C 78.15625 74.402344 80.019531 72.628906 81.925781 70.902344 C 83.832031 69.171875 85.78125 67.492188 87.773438 65.859375 C 89.761719 64.226562 91.789062 62.644531 93.855469 61.109375 C 95.925781 59.578125 98.027344 58.09375 100.167969 56.664062 C 102.308594 55.234375 104.480469 53.859375 106.6875 52.535156 C 108.894531 51.210938 111.132812 49.945312 113.40625 48.730469 C 115.675781 47.515625 117.972656 46.359375 120.300781 45.261719 C 122.625 44.160156 124.976562 43.117188 127.355469 42.132812 C 129.734375 41.148438 132.132812 40.222656 134.558594 39.355469 C 136.980469 38.488281 139.421875 37.679688 141.886719 36.933594 C 144.347656 36.183594 146.828125 35.5 149.324219 34.875 C 151.820312 34.25 154.332031 33.683594 156.855469 33.183594 C 159.382812 32.679688 161.917969 32.242188 164.460938 31.863281 C 167.007812 31.484375 169.5625 31.171875 172.121094 30.917969 C 174.683594 30.664062 177.25 30.476562 179.820312 30.351562 C 182.390625 30.222656 184.964844 30.160156 187.539062 30.160156 C 190.109375 30.160156 192.683594 30.222656 195.253906 30.347656 C 197.824219 30.476562 200.390625 30.664062 202.953125 30.917969 C 205.511719 31.167969 208.066406 31.484375 210.613281 31.863281 C 213.160156 32.238281 215.691406 32.679688 218.21875 33.179688 C 220.742188 33.683594 223.253906 34.246094 225.75 34.871094 C 228.246094 35.496094 230.726562 36.183594 233.1875 36.929688 C 235.652344 37.679688 238.09375 38.484375 240.515625 39.351562 C 242.941406 40.21875 245.339844 41.144531 247.71875 42.128906 C 250.097656 43.113281 252.449219 44.15625 254.777344 45.257812 C 257.101562 46.359375 259.402344 47.515625 261.671875 48.726562 C 263.941406 49.941406 266.179688 51.210938 268.386719 52.53125 C 270.59375 53.855469 272.769531 55.230469 274.90625 56.660156 C 277.046875 58.09375 279.152344 59.574219 281.21875 61.105469 C 283.285156 62.640625 285.3125 64.222656 287.304688 65.855469 C 289.292969 67.488281 291.242188 69.167969 293.148438 70.898438 C 295.054688 72.625 296.917969 74.398438 298.738281 76.21875 Z M 298.738281 76.21875 " fill-opacity="1" fill-rule="nonzero"/><g clip-path="url(#4be79e4523)"><g clip-path="url(#9a10746aa2)"><path fill="#2484c6" d="M 18.46875 9.6875 L 18.46875 365.203125 L 365.308594 365.203125 L 365.308594 9.6875 Z M 18.46875 9.6875 " fill-opacity="1" fill-rule="nonzero"/></g></g><path fill="#3d3e3f" d="M 125.902344 219.796875 L 119.804688 219.796875 L 144.035156 160.636719 L 121.566406 160.636719 L 121.566406 169.257812 L 115.734375 169.257812 L 115.734375 155.089844 L 151.214844 155.089844 L 151.214844 157.898438 Z M 125.902344 219.796875 " fill-opacity="1" fill-rule="nonzero"/><path fill="#3d3e3f" d="M 195.65625 210.996094 C 194.820312 212.917969 193.699219 214.605469 192.242188 216.042969 C 190.804688 217.484375 189.113281 218.621094 187.195312 219.457031 C 185.273438 220.292969 183.210938 220.703125 181.007812 220.703125 L 178.253906 220.703125 C 176.050781 220.703125 173.988281 220.292969 172.050781 219.457031 C 170.113281 218.621094 168.421875 217.503906 166.964844 216.042969 C 165.527344 214.605469 164.386719 212.917969 163.554688 210.996094 C 162.71875 209.078125 162.308594 207.015625 162.308594 204.808594 L 162.308594 170.058594 C 162.308594 167.871094 162.71875 165.808594 163.554688 163.871094 C 164.386719 161.953125 165.507812 160.265625 166.964844 158.824219 C 168.40625 157.382812 170.09375 156.246094 172.050781 155.410156 C 173.988281 154.574219 176.066406 154.167969 178.253906 154.167969 L 181.007812 154.167969 C 183.195312 154.167969 185.257812 154.574219 187.195312 155.410156 C 189.113281 156.246094 190.804688 157.367188 192.242188 158.824219 C 193.683594 160.265625 194.820312 161.953125 195.65625 163.871094 C 196.492188 165.792969 196.898438 167.855469 196.898438 170.058594 L 196.898438 204.808594 C 196.882812 207.015625 196.472656 209.078125 195.65625 210.996094 Z M 191.070312 170.058594 C 191.070312 168.617188 190.804688 167.269531 190.253906 166.023438 C 189.71875 164.777344 188.972656 163.675781 188.046875 162.753906 C 187.105469 161.828125 186.019531 161.082031 184.777344 160.546875 C 183.53125 160.015625 182.183594 159.730469 180.742188 159.730469 L 178.539062 159.730469 C 177.097656 159.730469 175.746094 159.996094 174.503906 160.546875 C 173.257812 161.082031 172.15625 161.828125 171.214844 162.753906 C 170.273438 163.695312 169.527344 164.777344 168.972656 166.023438 C 168.441406 167.269531 168.15625 168.617188 168.15625 170.058594 L 168.15625 204.808594 C 168.15625 206.25 168.421875 207.601562 168.972656 208.84375 C 169.507812 210.089844 170.253906 211.191406 171.214844 212.132812 C 172.15625 213.074219 173.257812 213.824219 174.503906 214.375 C 175.746094 214.925781 177.097656 215.191406 178.539062 215.191406 L 180.742188 215.191406 C 182.183594 215.191406 183.53125 214.925781 184.777344 214.375 C 186.019531 213.839844 187.125 213.09375 188.046875 212.132812 C 188.972656 211.191406 189.71875 210.089844 190.253906 208.84375 C 190.785156 207.601562 191.070312 206.25 191.070312 204.808594 Z M 191.070312 170.058594 " fill-opacity="1" fill-rule="nonzero"/><path fill="#3d3e3f" d="M 226.601562 181.59375 C 226.195312 182.574219 225.625 183.425781 224.914062 184.15625 C 224.1875 184.882812 223.351562 185.453125 222.371094 185.898438 C 221.394531 186.339844 220.328125 186.554688 219.191406 186.554688 L 217.929688 186.554688 C 216.792969 186.554688 215.726562 186.339844 214.746094 185.898438 C 213.769531 185.46875 212.917969 184.882812 212.203125 184.15625 C 211.476562 183.425781 210.90625 182.574219 210.5 181.59375 C 210.070312 180.617188 209.859375 179.585938 209.859375 178.503906 L 209.859375 162.753906 C 209.859375 161.667969 210.070312 160.636719 210.5 159.660156 C 210.925781 158.683594 211.492188 157.828125 212.203125 157.117188 C 212.933594 156.390625 213.769531 155.820312 214.746094 155.375 C 215.726562 154.949219 216.792969 154.71875 217.929688 154.71875 L 219.191406 154.71875 C 220.328125 154.71875 221.394531 154.929688 222.371094 155.375 C 223.351562 155.820312 224.203125 156.390625 224.914062 157.117188 C 225.644531 157.847656 226.195312 158.699219 226.601562 159.660156 C 227.011719 160.636719 227.207031 161.667969 227.207031 162.753906 L 227.207031 178.503906 C 227.207031 179.585938 227.011719 180.617188 226.601562 181.59375 Z M 213.539062 219.796875 L 250.40625 155.074219 L 255.597656 155.074219 L 218.730469 219.796875 Z M 222.800781 162.753906 C 222.800781 162.238281 222.691406 161.757812 222.496094 161.3125 C 222.300781 160.851562 222.035156 160.476562 221.679688 160.140625 C 221.34375 159.800781 220.933594 159.554688 220.488281 159.359375 C 220.042969 159.164062 219.546875 159.054688 218.996094 159.054688 L 218.089844 159.054688 C 217.554688 159.054688 217.058594 159.144531 216.597656 159.359375 C 216.152344 159.554688 215.742188 159.820312 215.40625 160.140625 C 215.066406 160.476562 214.78125 160.867188 214.585938 161.3125 C 214.390625 161.757812 214.285156 162.238281 214.285156 162.753906 L 214.285156 178.503906 C 214.285156 179.53125 214.65625 180.386719 215.386719 181.097656 C 216.132812 181.808594 217.023438 182.164062 218.070312 182.164062 L 218.976562 182.164062 C 220.027344 182.164062 220.933594 181.808594 221.660156 181.097656 C 222.410156 180.386719 222.765625 179.53125 222.765625 178.503906 L 222.765625 162.753906 Z M 258.6875 215.210938 C 258.28125 216.1875 257.710938 217.039062 257 217.75 C 256.269531 218.480469 255.417969 219.046875 254.457031 219.492188 C 253.480469 219.917969 252.414062 220.152344 251.277344 220.152344 L 249.960938 220.152344 C 248.839844 220.152344 247.808594 219.9375 246.832031 219.492188 C 245.855469 219.066406 245 218.480469 244.289062 217.75 C 243.5625 217.023438 242.992188 216.167969 242.582031 215.210938 C 242.15625 214.230469 241.945312 213.199219 241.945312 212.117188 L 241.945312 196.421875 C 241.945312 195.335938 242.15625 194.304688 242.582031 193.328125 C 243.011719 192.347656 243.578125 191.496094 244.289062 190.785156 C 245.019531 190.054688 245.871094 189.488281 246.832031 189.042969 C 247.808594 188.617188 248.859375 188.386719 249.960938 188.386719 L 251.277344 188.386719 C 252.414062 188.386719 253.480469 188.597656 254.457031 189.042969 C 255.4375 189.488281 256.289062 190.054688 257 190.785156 C 257.730469 191.515625 258.28125 192.347656 258.6875 193.328125 C 259.097656 194.304688 259.292969 195.335938 259.292969 196.421875 L 259.292969 212.117188 C 259.3125 213.199219 259.097656 214.230469 258.6875 215.210938 Z M 254.882812 196.421875 C 254.882812 195.90625 254.777344 195.425781 254.582031 194.980469 C 254.386719 194.519531 254.121094 194.144531 253.765625 193.808594 C 253.410156 193.46875 253.019531 193.21875 252.574219 193.007812 C 252.128906 192.8125 251.632812 192.703125 251.082031 192.703125 L 250.136719 192.703125 C 249.605469 192.703125 249.109375 192.8125 248.644531 193.007812 C 248.183594 193.203125 247.792969 193.46875 247.453125 193.808594 C 247.097656 194.144531 246.832031 194.535156 246.636719 194.980469 C 246.441406 195.425781 246.335938 195.90625 246.335938 196.421875 L 246.335938 212.117188 C 246.335938 212.632812 246.421875 213.113281 246.636719 213.554688 C 246.832031 214 247.097656 214.390625 247.453125 214.730469 C 247.792969 215.066406 248.199219 215.316406 248.644531 215.511719 C 249.089844 215.707031 249.585938 215.8125 250.136719 215.8125 L 251.082031 215.8125 C 251.613281 215.8125 252.128906 215.707031 252.574219 215.511719 C 253.019531 215.316406 253.425781 215.050781 253.765625 214.730469 C 254.101562 214.390625 254.386719 214 254.582031 213.554688 C 254.777344 213.113281 254.882812 212.613281 254.882812 212.117188 Z M 254.882812 196.421875 " fill-opacity="1" fill-rule="nonzero"/></svg>