<svg xmlns="http://www.w3.org/2000/svg" xmlns:xlink="http://www.w3.org/1999/xlink" width="200" zoomAndPan="magnify" viewBox="0 0 375 374.999991" height="200" preserveAspectRatio="xMidYMid meet" version="1.0">
    <defs><clipPath id="819624682e"><path d="M 10 284 L 365 284 L 365 311.765625 L 10 311.765625 Z M 10 284 " clip-rule="nonzero"/></clipPath></defs><path fill="#a5e2e6" d="M 356.621094 254.1875 C 340.972656 254.1875 333.339844 251.625 325.257812 248.914062 C 316.355469 245.929688 307.148438 242.839844 288.976562 242.839844 C 270.800781 242.839844 261.59375 245.929688 252.691406 248.914062 C 244.613281 251.625 236.980469 254.1875 221.332031 254.1875 C 205.683594 254.1875 198.050781 251.625 189.96875 248.914062 C 181.066406 245.929688 171.863281 242.839844 153.6875 242.839844 C 135.515625 242.839844 126.308594 245.929688 117.40625 248.914062 C 109.328125 251.625 101.695312 254.1875 86.046875 254.1875 C 70.398438 254.1875 62.765625 251.625 54.6875 248.914062 C 45.785156 245.929688 36.578125 242.839844 18.40625 242.839844 C 14.132812 242.839844 10.667969 246.304688 10.667969 250.578125 C 10.667969 254.847656 14.132812 258.3125 18.40625 258.3125 C 34.050781 258.3125 41.683594 260.875 49.765625 263.585938 C 58.667969 266.570312 67.871094 269.660156 86.046875 269.660156 C 104.21875 269.660156 113.425781 266.570312 122.328125 263.585938 C 130.410156 260.875 138.042969 258.3125 153.6875 258.3125 C 169.335938 258.3125 176.96875 260.875 185.050781 263.585938 C 193.953125 266.570312 203.15625 269.660156 221.332031 269.660156 C 239.503906 269.660156 248.710938 266.570312 257.613281 263.585938 C 265.695312 260.875 273.328125 258.3125 288.976562 258.3125 C 304.625 258.3125 312.257812 260.875 320.339844 263.585938 C 329.242188 266.570312 338.449219 269.660156 356.621094 269.660156 C 360.894531 269.660156 364.359375 266.195312 364.359375 261.921875 C 364.359375 257.652344 360.894531 254.1875 356.621094 254.1875 Z M 356.621094 254.1875 " fill-opacity="1" fill-rule="nonzero"/><g clip-path="url(#819624682e)"><path fill="#a5e2e6" d="M 356.621094 296.015625 C 340.972656 296.015625 333.339844 293.453125 325.257812 290.746094 C 316.355469 287.757812 307.148438 284.667969 288.976562 284.667969 C 270.800781 284.667969 261.59375 287.757812 252.691406 290.746094 C 244.613281 293.453125 236.980469 296.015625 221.332031 296.015625 C 205.683594 296.015625 198.050781 293.453125 189.96875 290.746094 C 181.066406 287.757812 171.863281 284.667969 153.6875 284.667969 C 135.515625 284.667969 126.308594 287.757812 117.40625 290.746094 C 109.328125 293.457031 101.695312 296.015625 86.046875 296.015625 C 70.398438 296.015625 62.765625 293.453125 54.6875 290.746094 C 45.785156 287.757812 36.578125 284.667969 18.40625 284.667969 C 14.132812 284.667969 10.667969 288.132812 10.667969 292.40625 C 10.667969 296.679688 14.132812 300.140625 18.40625 300.140625 C 34.050781 300.140625 41.683594 302.703125 49.765625 305.414062 C 58.667969 308.398438 67.871094 311.488281 86.046875 311.488281 C 104.21875 311.488281 113.425781 308.398438 122.328125 305.414062 C 130.410156 302.703125 138.042969 300.140625 153.6875 300.140625 C 169.335938 300.140625 176.96875 302.703125 185.050781 305.414062 C 193.953125 308.398438 203.15625 311.488281 221.332031 311.488281 C 239.503906 311.488281 248.710938 308.398438 257.613281 305.414062 C 265.695312 302.703125 273.328125 300.140625 288.976562 300.140625 C 304.625 300.140625 312.257812 302.703125 320.339844 305.414062 C 329.242188 308.398438 338.449219 311.488281 356.621094 311.488281 C 360.894531 311.488281 364.359375 308.023438 364.359375 303.75 C 364.359375 299.480469 360.894531 296.015625 356.621094 296.015625 Z M 356.621094 296.015625 " fill-opacity="1" fill-rule="nonzero"/></g><path fill="#a5e2e6" d="M 374.515625 203.867188 C 374.089844 199.617188 370.292969 196.515625 366.046875 196.941406 C 347.015625 198.855469 313.007812 200.636719 302.769531 197.289062 C 285.789062 191.730469 273.265625 183.902344 266.550781 174.648438 C 261.019531 167.019531 259.449219 158.667969 261.878906 149.824219 C 265.386719 137.066406 277.0625 124.792969 293.117188 116.992188 C 310.835938 108.378906 331.835938 105.964844 352.480469 110.136719 C 354.625 111.34375 357.253906 111.46875 359.539062 110.40625 C 362.265625 109.136719 364.007812 106.398438 364.007812 103.394531 L 364.007812 103.035156 C 364.007812 99.9375 362.171875 97.195312 359.429688 95.972656 C 330.707031 72.726562 293.925781 63.511719 255.578125 70.003906 C 204.445312 78.664062 157.152344 113.828125 125.828125 166.484375 C 101.066406 208.097656 9.914062 199.308594 8.996094 199.214844 C 4.746094 198.777344 0.949219 201.867188 0.511719 206.117188 C 0.0742188 210.367188 3.164062 214.167969 7.414062 214.605469 C 8.023438 214.667969 16.835938 215.546875 29.785156 215.546875 C 38.65625 215.546875 49.46875 215.136719 60.90625 213.761719 C 77.683594 211.746094 92.339844 208.066406 104.476562 202.820312 C 120.320312 195.972656 131.976562 186.410156 139.125 174.394531 C 168.125 125.648438 211.511719 93.160156 258.164062 85.257812 C 281.824219 81.253906 304.765625 83.976562 325.046875 92.933594 C 311.457031 93.863281 298.289062 97.273438 286.351562 103.074219 C 276.589844 107.820312 267.867188 114.140625 261.132812 121.347656 C 254.207031 128.761719 249.304688 137.1875 246.960938 145.722656 C 245.179688 152.195312 244.839844 158.683594 245.941406 165.007812 C 247.097656 171.628906 249.816406 177.925781 254.027344 183.730469 C 262.789062 195.816406 277.570312 205.324219 297.957031 211.992188 C 305.421875 214.433594 319.101562 215.183594 339.78125 214.28125 C 354.492188 213.644531 367.0625 212.390625 367.59375 212.335938 C 371.84375 211.910156 374.941406 208.117188 374.515625 203.867188 Z M 374.515625 203.867188 " fill-opacity="1" fill-rule="nonzero"/>
</svg>
