<svg xmlns="http://www.w3.org/2000/svg" xmlns:xlink="http://www.w3.org/1999/xlink" width="500" zoomAndPan="magnify" viewBox="0 0 375 374.999991" height="500" preserveAspectRatio="xMidYMid meet" version="1.0"><defs><clipPath id="5dd20c7f69"><path d="M 0 3 L 370.5 3 L 370.5 375 L 0 375 Z M 0 3 " clip-rule="nonzero"/></clipPath></defs><g clip-path="url(#5dd20c7f69)"><path fill="#a5e2e6" d="M 355.664062 298.054688 L 355.664062 32.949219 C 355.664062 16.941406 342.640625 3.917969 326.632812 3.917969 C 310.625 3.917969 297.601562 16.941406 297.601562 32.949219 L 297.601562 42.039062 C 261.179688 14.113281 214.730469 0.03125 166.472656 4.847656 C 166.316406 4.859375 166.160156 4.871094 166.007812 4.894531 C 72.707031 14.4375 0.0390625 93.15625 0.0390625 188.988281 C 0.0390625 291.285156 82.828125 374.058594 185.109375 374.058594 C 221.09375 374.058594 255.542969 363.886719 285.421875 344.542969 C 291.117188 361.136719 306.605469 373.308594 324.898438 374.023438 C 349.710938 375.011719 370.179688 355.175781 370.179688 330.511719 C 370.179688 317.945312 364.929688 306.308594 355.664062 298.054688 Z M 19.285156 228.90625 L 146.984375 228.90625 C 162.074219 228.90625 174.355469 216.777344 174.355469 201.6875 C 174.355469 186.597656 162.074219 174.472656 146.984375 174.472656 L 143.355469 174.472656 C 136.4375 174.472656 130.808594 168.691406 130.808594 161.769531 C 130.808594 154.847656 136.4375 149.070312 143.355469 149.070312 L 205.066406 149.070312 C 220.074219 149.070312 232.25 136.863281 232.25 121.855469 C 232.25 106.847656 220.007812 94.640625 205.003906 94.640625 C 188.066406 94.640625 174.222656 80.863281 174.222656 63.925781 L 174.222656 18.792969 C 220.503906 15.863281 264.386719 31.628906 297.601562 60.808594 L 297.601562 181.730469 L 230.621094 181.730469 C 215.53125 181.730469 203.253906 193.859375 203.253906 208.949219 C 203.253906 224.039062 215.53125 236.164062 230.621094 236.164062 L 234.25 236.164062 C 241.171875 236.164062 246.800781 241.945312 246.800781 248.867188 C 246.800781 255.785156 241.171875 261.566406 234.25 261.566406 L 172.539062 261.566406 C 157.53125 261.566406 145.324219 273.773438 145.324219 288.78125 C 145.324219 303.789062 157.53125 315.996094 172.539062 315.996094 C 189.476562 315.996094 203.253906 329.773438 203.253906 346.710938 L 203.253906 358.589844 C 115.660156 367.785156 38.742188 309.726562 19.285156 228.90625 Z M 325.464844 359.519531 C 310.378906 358.929688 298.152344 346.648438 297.621094 331.5625 C 297.289062 322.066406 301.621094 312.992188 309.21875 307.292969 C 311.042969 305.921875 312.117188 303.773438 312.117188 301.488281 L 312.117188 32.949219 C 312.117188 24.945312 318.628906 18.433594 326.632812 18.433594 C 334.636719 18.433594 341.148438 24.945312 341.148438 32.949219 L 341.148438 69.238281 L 333.890625 69.238281 C 329.882812 69.238281 326.632812 72.488281 326.632812 76.496094 C 326.632812 80.503906 329.882812 83.753906 333.890625 83.753906 L 341.148438 83.753906 L 341.148438 98.269531 L 333.890625 98.269531 C 329.882812 98.269531 326.632812 101.519531 326.632812 105.527344 C 326.632812 109.535156 329.882812 112.785156 333.890625 112.785156 L 341.148438 112.785156 L 341.148438 127.300781 L 333.890625 127.300781 C 329.882812 127.300781 326.632812 130.546875 326.632812 134.554688 C 326.632812 138.566406 329.882812 141.8125 333.890625 141.8125 L 341.148438 141.8125 L 341.148438 156.328125 L 333.890625 156.328125 C 329.882812 156.328125 326.632812 159.578125 326.632812 163.585938 C 326.632812 167.59375 329.882812 170.84375 333.890625 170.84375 L 341.148438 170.84375 L 341.148438 185.359375 L 333.890625 185.359375 C 329.882812 185.359375 326.632812 188.609375 326.632812 192.617188 C 326.632812 196.625 329.882812 199.875 333.890625 199.875 L 341.148438 199.875 L 341.148438 214.390625 L 333.890625 214.390625 C 329.882812 214.390625 326.632812 217.640625 326.632812 221.648438 C 326.632812 225.65625 329.882812 228.90625 333.890625 228.90625 L 341.148438 228.90625 L 341.148438 243.421875 L 333.890625 243.421875 C 329.882812 243.421875 326.632812 246.667969 326.632812 250.679688 C 326.632812 254.6875 329.882812 257.9375 333.890625 257.9375 L 341.148438 257.9375 L 341.148438 301.488281 C 341.148438 303.773438 342.222656 305.921875 344.050781 307.292969 C 351.429688 312.832031 355.664062 321.296875 355.664062 330.511719 C 355.664062 346.976562 342.019531 360.160156 325.464844 359.519531 Z M 325.464844 359.519531 " fill-opacity="1" fill-rule="nonzero"/></g><path fill="#a5e2e6" d="M 333.894531 330.507812 C 333.894531 330.984375 333.847656 331.457031 333.753906 331.925781 C 333.660156 332.394531 333.523438 332.847656 333.339844 333.289062 C 333.15625 333.726562 332.933594 334.144531 332.667969 334.542969 C 332.40625 334.9375 332.101562 335.304688 331.765625 335.644531 C 331.429688 335.980469 331.0625 336.28125 330.667969 336.546875 C 330.269531 336.808594 329.851562 337.035156 329.410156 337.214844 C 328.96875 337.398438 328.515625 337.535156 328.050781 337.628906 C 327.582031 337.722656 327.109375 337.769531 326.632812 337.769531 C 326.15625 337.769531 325.683594 337.722656 325.214844 337.628906 C 324.75 337.535156 324.292969 337.398438 323.855469 337.214844 C 323.414062 337.035156 322.996094 336.808594 322.597656 336.546875 C 322.203125 336.28125 321.835938 335.980469 321.5 335.644531 C 321.160156 335.304688 320.859375 334.9375 320.59375 334.542969 C 320.332031 334.144531 320.105469 333.726562 319.925781 333.289062 C 319.742188 332.847656 319.605469 332.394531 319.511719 331.925781 C 319.417969 331.457031 319.371094 330.984375 319.371094 330.507812 C 319.371094 330.03125 319.417969 329.558594 319.511719 329.09375 C 319.605469 328.625 319.742188 328.171875 319.925781 327.730469 C 320.105469 327.289062 320.332031 326.871094 320.59375 326.476562 C 320.859375 326.078125 321.160156 325.710938 321.5 325.375 C 321.835938 325.039062 322.203125 324.738281 322.597656 324.472656 C 322.996094 324.207031 323.414062 323.984375 323.855469 323.800781 C 324.292969 323.617188 324.75 323.480469 325.214844 323.386719 C 325.683594 323.292969 326.15625 323.25 326.632812 323.25 C 327.109375 323.25 327.582031 323.292969 328.050781 323.386719 C 328.515625 323.480469 328.96875 323.617188 329.410156 323.800781 C 329.851562 323.984375 330.269531 324.207031 330.667969 324.472656 C 331.0625 324.738281 331.429688 325.039062 331.765625 325.375 C 332.101562 325.710938 332.40625 326.078125 332.667969 326.476562 C 332.933594 326.871094 333.15625 327.289062 333.339844 327.730469 C 333.523438 328.171875 333.660156 328.625 333.753906 329.09375 C 333.847656 329.558594 333.894531 330.03125 333.894531 330.507812 Z M 333.894531 330.507812 " fill-opacity="1" fill-rule="nonzero"/></svg>